<?xml version="1.0" encoding="utf-8"?>
<!-- Generator: Adobe Illustrator 21.0.0, SVG Export Plug-In . SVG Version: 6.00 Build 0)  -->
<svg version="1.1" id="Layer_1" xmlns="http://www.w3.org/2000/svg" xmlns:xlink="http://www.w3.org/1999/xlink" x="0px" y="0px"
	 viewBox="0 0 2340 1560" style="enable-background:new 0 0 2340 1560;" xml:space="preserve">
<style type="text/css">
	.st0{fill:url(#SVGID_1_);}
	.st1{fill:url(#SVGID_2_);}
	.st2{fill:url(#SVGID_3_);}
	.st3{fill:url(#SVGID_4_);}
	.st4{fill:url(#SVGID_5_);}
	.st5{fill:url(#SVGID_6_);}
	.st6{fill:url(#SVGID_7_);}
	.st7{fill:url(#SVGID_8_);}
	.st8{fill:url(#SVGID_9_);}
	.st9{fill:url(#SVGID_10_);}
	.st10{fill:url(#SVGID_11_);}
	.st11{fill:url(#SVGID_12_);}
	.st12{fill:url(#SVGID_13_);}
	.st13{fill:url(#SVGID_14_);}
	.st14{fill:url(#SVGID_15_);}
	.st15{fill:url(#SVGID_16_);}
	.st16{fill:url(#SVGID_17_);}
	.st17{fill:url(#SVGID_18_);}
	.st18{fill:url(#SVGID_19_);}
	.st19{fill:url(#SVGID_20_);}
	.st20{fill:url(#SVGID_21_);}
	.st21{fill:url(#SVGID_22_);}
	.st22{fill:url(#SVGID_23_);}
	.st23{fill:url(#SVGID_24_);}
	.st24{fill:url(#SVGID_25_);}
	.st25{fill:url(#SVGID_26_);}
	.st26{fill:url(#SVGID_27_);}
	.st27{fill:url(#SVGID_28_);}
	.st28{fill:url(#SVGID_29_);}
	.st29{fill:url(#SVGID_30_);}
</style>
<g>
	<linearGradient id="SVGID_1_" gradientUnits="userSpaceOnUse" x1="1110.907" y1="861.5035" x2="1110.907" y2="861.5035">
		<stop  offset="2.010050e-02" style="stop-color:#00FF49"/>
		<stop  offset="0.3593" style="stop-color:#E9B600"/>
		<stop  offset="0.5075" style="stop-color:#FF0000"/>
	</linearGradient>
	<path class="st0" d="M1110.9,861.5"/>
	<linearGradient id="SVGID_2_" gradientUnits="userSpaceOnUse" x1="1110.907" y1="861.5035" x2="1110.907" y2="861.5035">
		<stop  offset="2.010050e-02" style="stop-color:#00FF49"/>
		<stop  offset="0.3593" style="stop-color:#E9B600"/>
		<stop  offset="0.5075" style="stop-color:#FF0000"/>
	</linearGradient>
	<path class="st1" d="M1110.9,861.5"/>
	<g>
		<linearGradient id="SVGID_3_" gradientUnits="userSpaceOnUse" x1="1039.7714" y1="631.8294" x2="2920.9595" y2="1453.9116">
			<stop  offset="2.010050e-02" style="stop-color:#00FF49"/>
			<stop  offset="0.3593" style="stop-color:#E9B600"/>
			<stop  offset="0.5075" style="stop-color:#FF0000"/>
		</linearGradient>
		<path class="st2" d="M1749,470.3c-12.3-13.4-31.8-17.3-48.3-9.8l-364.4,165.6l-189-327.6c-7.5-12.8-21.2-20.9-36.3-20.9
			s-28.8,8.1-36.3,20.9l-189,327.6L521.1,460.5c-16.5-7.5-36-3.6-48.3,9.8c-12.3,13.4-14.5,33.2-5.3,49.1l250.8,438.1
			c7.5,13.1,21.2,21.2,36.3,21.2h712.9c15.1,0,28.8-8.1,36.3-21.2l250.8-438.1C1763.5,503.5,1761.3,483.7,1749,470.3z M1110.9,403.3
			L1259.7,661l-148.8,67.6L962.1,661L1110.9,403.3z M604.6,590.4l405.2,184.3L771.9,882.7L604.6,590.4z M1442.9,894.7H947.6
			l180.1-82.1c0.3,0,0.3-0.3,0.6-0.3l488.7-222.3L1442.9,894.7z"/>
		<g>
			<linearGradient id="SVGID_4_" gradientUnits="userSpaceOnUse" x1="1217.218" y1="225.7743" x2="3098.4063" y2="1047.8564">
				<stop  offset="2.010050e-02" style="stop-color:#00FF49"/>
				<stop  offset="0.3593" style="stop-color:#E9B600"/>
				<stop  offset="0.5075" style="stop-color:#FF0000"/>
			</linearGradient>
			<circle class="st3" cx="1110.9" cy="179.3" r="52.5"/>
		</g>
		<g>
			<linearGradient id="SVGID_5_" gradientUnits="userSpaceOnUse" x1="1036.8234" y1="638.5752" x2="2918.0115" y2="1460.6573">
				<stop  offset="2.010050e-02" style="stop-color:#00FF49"/>
				<stop  offset="0.3593" style="stop-color:#E9B600"/>
				<stop  offset="0.5075" style="stop-color:#FF0000"/>
			</linearGradient>
			<circle class="st4" cx="433.2" cy="374.8" r="52.5"/>
		</g>
		<g>
			<linearGradient id="SVGID_6_" gradientUnits="userSpaceOnUse" x1="1254.1661" y1="141.2253" x2="3135.3542" y2="963.3076">
				<stop  offset="2.010050e-02" style="stop-color:#00FF49"/>
				<stop  offset="0.3593" style="stop-color:#E9B600"/>
				<stop  offset="0.5075" style="stop-color:#FF0000"/>
			</linearGradient>
			<circle class="st5" cx="1788.6" cy="374.8" r="52.5"/>
		</g>
	</g>
	<g>
		<linearGradient id="SVGID_7_" gradientUnits="userSpaceOnUse" x1="761.7847" y1="1267.952" x2="2642.9729" y2="2090.0342">
			<stop  offset="2.010050e-02" style="stop-color:#00FF49"/>
			<stop  offset="0.3593" style="stop-color:#E9B600"/>
			<stop  offset="0.5075" style="stop-color:#FF0000"/>
		</linearGradient>
		<path class="st6" d="M560.8,1196.9c-9.5,13.4-21.5,24-36.9,31.6c-14.5,7.5-30.4,11.2-47.5,11.2c-27.9,0-52.2-10.3-70.9-28.2
			c-18.4-17.9-29.3-41.3-29.3-68.1c0-26.8,10.9-50.3,29.3-68.1s43-28.2,70.9-28.2c16.5,0,32.1,3.9,45.5,10.3
			c14.2,7.3,26,16.8,35.7,29.6l-27.9,19.5c-6.1-8.1-14-14.2-23.2-19.3c-9.5-4.7-19.5-7.3-30.2-7.3c-17.9,0-34.1,7.3-46.4,18.7
			c-12.3,11.7-19.5,27.4-19.5,44.4c0,17.9,7.5,33.2,19.5,44.7c11.7,11.4,27.6,18.4,46.4,18.4c11.7,0,22.3-2.5,31.8-7.5
			c9.8-4.7,17.9-11.7,24.3-20.4L560.8,1196.9z M532.6,1178.4l28.5,18.4L532.6,1178.4z"/>
		<linearGradient id="SVGID_8_" gradientUnits="userSpaceOnUse" x1="781.876" y1="1221.9768" x2="2663.0642" y2="2044.059">
			<stop  offset="2.010050e-02" style="stop-color:#00FF49"/>
			<stop  offset="0.3593" style="stop-color:#E9B600"/>
			<stop  offset="0.5075" style="stop-color:#FF0000"/>
		</linearGradient>
		<path class="st7" d="M689.8,1235.4h-40.2l-38.5-62h-5v62h-34.3v-182.6H606v0.3h16.2c17.3,0,32.7,6.1,44.1,17.6
			c11.4,11.7,18.4,26,18.4,42.4c0,16.5-6.7,31.8-18.4,42.4c-5.9,5.6-11.7,9.5-18.4,12.3L689.8,1235.4z M606,1139.9h16.2
			c7.8,0,14.5-2.5,19.8-7.8c5.3-5.3,8.1-11.7,8.1-19.3c0-7.3-2.8-13.7-8.1-19.3c-5.3-5.3-12.3-7.8-19.8-7.8H606V1139.9z"/>
		<linearGradient id="SVGID_9_" gradientUnits="userSpaceOnUse" x1="805.2402" y1="1168.5118" x2="2686.4285" y2="1990.594">
			<stop  offset="2.010050e-02" style="stop-color:#00FF49"/>
			<stop  offset="0.3593" style="stop-color:#E9B600"/>
			<stop  offset="0.5075" style="stop-color:#FF0000"/>
		</linearGradient>
		<path class="st8" d="M731.4,1128.2h51.4v33.2h-51.4v40.5h69v33.5H697.1v-183.2h103.3v33.2h-69L731.4,1128.2L731.4,1128.2z
			 M731.4,1085.5v42.7V1085.5z"/>
		<linearGradient id="SVGID_10_" gradientUnits="userSpaceOnUse" x1="823.269" y1="1127.2561" x2="2704.4573" y2="1949.3384">
			<stop  offset="2.010050e-02" style="stop-color:#00FF49"/>
			<stop  offset="0.3593" style="stop-color:#E9B600"/>
			<stop  offset="0.5075" style="stop-color:#FF0000"/>
		</linearGradient>
		<path class="st9" d="M940.6,1193.8h-66.7l-20.4,41.6h-37.7l74.6-151.9l15.6-31.6l15.9,31.3l77.9,152.2h-37.7L940.6,1193.8z
			 M889.2,1162.5h35.2l-17.9-35.5L889.2,1162.5z M906.5,1127.3l-17.3,35.5L906.5,1127.3z"/>
		<linearGradient id="SVGID_11_" gradientUnits="userSpaceOnUse" x1="851.1516" y1="1063.4518" x2="2732.3398" y2="1885.5341">
			<stop  offset="2.010050e-02" style="stop-color:#00FF49"/>
			<stop  offset="0.3593" style="stop-color:#E9B600"/>
			<stop  offset="0.5075" style="stop-color:#FF0000"/>
		</linearGradient>
		<path class="st10" d="M963.7,1052.5H1071v33.2h-36.9v149.7h-34.3v-149.7H964v-33.2H963.7z M963.7,1052.5v33.2V1052.5z"/>
		<linearGradient id="SVGID_12_" gradientUnits="userSpaceOnUse" x1="861.3894" y1="1040.0245" x2="2742.5774" y2="1862.1068">
			<stop  offset="2.010050e-02" style="stop-color:#00FF49"/>
			<stop  offset="0.3593" style="stop-color:#E9B600"/>
			<stop  offset="0.5075" style="stop-color:#FF0000"/>
		</linearGradient>
		<path class="st11" d="M1116.2,1052.5v182.6h-34.6v-182.6H1116.2z M1081.6,1052.5h34.3H1081.6z"/>
		<linearGradient id="SVGID_13_" gradientUnits="userSpaceOnUse" x1="887.3591" y1="980.5975" x2="2768.5471" y2="1802.6797">
			<stop  offset="2.010050e-02" style="stop-color:#00FF49"/>
			<stop  offset="0.3593" style="stop-color:#E9B600"/>
			<stop  offset="0.5075" style="stop-color:#FF0000"/>
		</linearGradient>
		<path class="st12" d="M1165.6,1054.2l52.8,105.3l51.9-105.3h37.7l-74.3,149.7l-15.6,31.6l-15.9-31.6l-74.6-149.7H1165.6z
			 M1127.9,1054.2h37.7H1127.9z"/>
		<linearGradient id="SVGID_14_" gradientUnits="userSpaceOnUse" x1="904.1952" y1="942.0711" x2="2785.3833" y2="1764.1533">
			<stop  offset="2.010050e-02" style="stop-color:#00FF49"/>
			<stop  offset="0.3593" style="stop-color:#E9B600"/>
			<stop  offset="0.5075" style="stop-color:#FF0000"/>
		</linearGradient>
		<path class="st13" d="M1348.5,1128.2h51.4v33.2h-51.4v40.5h69v33.5h-103.3v-183.2h103.3v33.2h-69V1128.2z M1348.5,1085.5v42.7
			V1085.5z"/>
		<linearGradient id="SVGID_15_" gradientUnits="userSpaceOnUse" x1="936.3217" y1="868.5555" x2="2817.5098" y2="1690.6377">
			<stop  offset="2.010050e-02" style="stop-color:#00FF49"/>
			<stop  offset="0.3593" style="stop-color:#E9B600"/>
			<stop  offset="0.5075" style="stop-color:#FF0000"/>
		</linearGradient>
		<path class="st14" d="M1538.4,1054.2v71.5l52.2-71.5h42.2l-66.7,91.6l71.5,89.6H1594l-48.9-61.2l-6.7,9.2v51.9h-34.3v-181.2
			L1538.4,1054.2L1538.4,1054.2z M1503.8,1054.2h34.3H1503.8z"/>
		<linearGradient id="SVGID_16_" gradientUnits="userSpaceOnUse" x1="951.9488" y1="832.7955" x2="2833.137" y2="1654.8777">
			<stop  offset="2.010050e-02" style="stop-color:#00FF49"/>
			<stop  offset="0.3593" style="stop-color:#E9B600"/>
			<stop  offset="0.5075" style="stop-color:#FF0000"/>
		</linearGradient>
		<path class="st15" d="M1680.8,1052.5v182.6h-34.3v-182.6H1680.8z M1646.2,1052.5h34.3H1646.2z"/>
		<linearGradient id="SVGID_17_" gradientUnits="userSpaceOnUse" x1="967.5662" y1="797.0579" x2="2848.7544" y2="1619.1401">
			<stop  offset="2.010050e-02" style="stop-color:#00FF49"/>
			<stop  offset="0.3593" style="stop-color:#E9B600"/>
			<stop  offset="0.5075" style="stop-color:#FF0000"/>
		</linearGradient>
		<path class="st16" d="M1828.3,1052.8v141.3v40.5l-30.2-30.2l-71.2-70.4v100.2h-34.3v-140.7v-40.8l30.2,30.2l71.2,70.4v-100.5
			H1828.3z M1793.7,1052.8h34.3H1793.7z"/>
		<linearGradient id="SVGID_18_" gradientUnits="userSpaceOnUse" x1="996.8" y1="730.1614" x2="2877.9883" y2="1552.2437">
			<stop  offset="2.010050e-02" style="stop-color:#00FF49"/>
			<stop  offset="0.3593" style="stop-color:#E9B600"/>
			<stop  offset="0.5075" style="stop-color:#FF0000"/>
		</linearGradient>
		<path class="st17" d="M1937.5,1142.1h104.7v0.3c0,26.8-9.2,50.3-27.6,68.1c-19,18.2-44.7,28.8-72.9,28.8
			c-27.9,0-52.8-10.1-70.9-28.2c-18.2-17.9-29.3-41.3-29.3-68.1c0-26.8,11.2-50.3,29.3-68.1c18.2-18.2,43.6-28.2,70.9-28.2
			c16.5,0,32.1,3.6,45.5,10.3c14.5,7.3,26.5,16.8,35.7,29.6l-27.9,19.5c-6.1-8.1-14-14.2-23.2-19.3c-9.5-4.7-19.5-7.3-30.2-7.3
			c-17.9,0-34.3,7.3-46.4,18.7c-11.7,11.4-19.3,27.4-19.3,44.4c0,17.9,7.5,33.2,19.3,44.7c11.7,11.4,28.5,18.4,46.4,18.4
			c19,0,36-7.5,48.3-19.3c3.6-3.6,6.7-7.5,9.5-11.4l-61.7-0.6v-32.4H1937.5z M1937.5,1142.1v33.2V1142.1z"/>
	</g>
	<g>
		<linearGradient id="SVGID_19_" gradientUnits="userSpaceOnUse" x1="753.7216" y1="1286.403" x2="2634.9097" y2="2108.4851">
			<stop  offset="2.010050e-02" style="stop-color:#00FF49"/>
			<stop  offset="0.3593" style="stop-color:#E9B600"/>
			<stop  offset="0.5075" style="stop-color:#FF0000"/>
		</linearGradient>
		<path class="st18" d="M860.7,1314.2l0.6-2.5c4.7-0.3,10.1-1.1,16.5-2.5c-2,4.2-3.4,8.9-4.7,14.5l-4.2,15.9
			c-3.1,11.4-6.4,20.4-10.3,26.2c3.6,0.6,7,0.8,9.8,0.8c7.5,0,14-1.4,19.5-4.2c5.6-2.8,10.1-7,13.1-12.3c3.4-5.3,5-11.4,5-17.9
			c0-8.7-2.8-15.4-8.4-20.7c-5.6-5.3-12.8-7.8-21.8-7.8c-7.5,0-14.8,1.7-21.5,4.7c-6.7,3.1-12,7.5-15.9,12.8
			c-3.9,5.3-5.9,10.3-5.9,15.4c0,5,2.5,8.4,7.3,10.9c1.4,0.6,2.2,1.4,2.8,1.7c0.3,0.6,0.6,1.1,0.6,2c0,0.8-0.3,1.7-1.1,2.5
			c-0.8,0.8-1.7,1.1-2.8,1.1c-2.2,0-4.5-1.4-6.7-3.9c-2.8-3.6-4.5-7.5-4.5-11.4c0-6.7,2.2-12.8,6.7-19s10.6-10.9,18.2-14.5
			c7.8-3.6,16.5-5.6,26-5.6c11.7,0,21.2,2.8,28.2,8.4c7,5.6,10.6,12.8,10.6,21.2c0,7.8-2.5,15.1-7.3,21.8
			c-4.7,6.7-10.6,11.4-17.6,14.2c-7,2.8-13.7,4.2-20.7,4.2c-2.2,0-6.1-0.3-11.4-0.6c-4.5-0.3-8.9-0.6-13.1-0.6c-2,0-4.7,0-8.7,0.3
			l1.4-2.8c3.9-0.3,6.4-0.6,7.3-0.8c0.8-0.6,1.7-1.1,2.5-2.2c1.1-1.7,2.8-5.6,5-11.4l4.5-15.1l5-18.7c0.3-0.8,0.3-1.7,0.3-2.2
			s-0.3-1.1-0.6-1.4c-0.6-0.3-1.1-0.6-1.7-0.6C862.1,1314.2,861.5,1314.2,860.7,1314.2z"/>
		<linearGradient id="SVGID_20_" gradientUnits="userSpaceOnUse" x1="762.0103" y1="1267.436" x2="2643.1982" y2="2089.5181">
			<stop  offset="2.010050e-02" style="stop-color:#00FF49"/>
			<stop  offset="0.3593" style="stop-color:#E9B600"/>
			<stop  offset="0.5075" style="stop-color:#FF0000"/>
		</linearGradient>
		<path class="st19" d="M955.4,1354.9l2.2,2.5c-10.3,8.9-19.5,13.4-26.8,13.4c-3.1,0-5.3-0.8-7-2.8c-1.7-2-2.5-4.7-2.5-8.9
			c0-8.1,2.8-16.2,8.4-24.3c6.1-9.2,13.7-13.7,22.3-13.7c3.1,0,5.3,0.6,7,2c1.7,1.4,2.5,3.4,2.5,5.6c0,2.5-0.8,5-2.8,7.3
			c-2,2.5-5.3,5-10.3,7.5c-2.5,1.4-7.8,3.6-15.9,6.7c-0.3,2-0.6,3.9-0.6,5.9c0,2.8,0.6,4.7,1.4,5.6c0.8,1.1,2.2,1.7,4.2,1.7
			c1.7,0,3.6-0.6,5.9-1.4C945.9,1361.1,950.1,1358.6,955.4,1354.9z M933,1346.8c7-2.8,12-5.6,15.6-8.9c2.2-2.2,3.6-4.5,3.6-6.7
			c0-1.7-0.6-3.1-1.4-3.9c-0.8-0.8-2.2-1.4-3.6-1.4c-1.7,0-3.1,0.6-4.7,1.7c-2,1.4-3.6,3.6-5,6.4
			C935.3,1338.2,933.9,1342.4,933,1346.8z"/>
		<linearGradient id="SVGID_21_" gradientUnits="userSpaceOnUse" x1="769.1959" y1="1250.9929" x2="2650.384" y2="2073.075">
			<stop  offset="2.010050e-02" style="stop-color:#00FF49"/>
			<stop  offset="0.3593" style="stop-color:#E9B600"/>
			<stop  offset="0.5075" style="stop-color:#FF0000"/>
		</linearGradient>
		<path class="st20" d="M994.7,1321.1c3.9,0,6.7,0.6,8.9,2c2,1.4,3.1,2.8,3.1,4.5c0,1.1-0.6,2-1.4,2.8c-0.8,0.8-2,1.1-3.1,1.1
			c-0.8,0-1.4-0.3-2.2-0.6c-0.6-0.3-1.4-1.1-2.5-2.5c-2-2.5-4.2-3.6-6.1-3.6c-1.7,0-3.4,0.6-4.7,1.7c-1.4,1.1-2,2.8-2,4.5
			s0.6,3.1,1.4,4.5c0.8,1.4,3.1,3.9,6.4,7.3c4.7,4.5,7,8.7,7,12.8c0,4.2-2,7.5-5.9,10.6c-3.9,3.1-8.7,4.5-14.8,4.5
			c-5,0-8.9-0.8-11.4-2.8s-3.6-4.2-3.6-7c0-1.4,0.6-2.5,1.4-3.4c0.8-0.8,2-1.4,3.4-1.4c1.1,0,2.2,0.3,3.1,1.1
			c0.8,0.8,1.4,1.7,1.4,2.5c0,0.3,0,0.8,0,1.4c0,0.6,0,0.8,0,1.4c0,1.4,0.6,2.2,1.7,3.1c1.1,0.8,2.8,1.4,4.7,1.4
			c2.2,0,4.2-0.3,6.1-1.1c1.7-0.8,3.1-1.7,4.2-3.1c1.1-1.4,1.4-2.8,1.4-4.2s-0.6-2.8-1.4-4.2c-0.8-1.4-3.1-3.6-6.1-6.7
			c-4.5-4.5-6.7-8.7-6.7-12.8c0-3.6,1.7-7,5-9.8C985.2,1322.5,989.4,1321.1,994.7,1321.1z"/>
		<linearGradient id="SVGID_22_" gradientUnits="userSpaceOnUse" x1="779.9894" y1="1226.2938" x2="2661.1775" y2="2048.376">
			<stop  offset="2.010050e-02" style="stop-color:#00FF49"/>
			<stop  offset="0.3593" style="stop-color:#E9B600"/>
			<stop  offset="0.5075" style="stop-color:#FF0000"/>
		</linearGradient>
		<path class="st21" d="M1010.7,1334.5l-2.8-2c4.2-4.2,8.1-7.3,11.7-8.9c3.6-1.7,6.4-2.8,8.9-2.8c1.4,0,2.5,0.3,3.1,0.8
			c0.8,0.6,1.1,1.4,1.1,2.2c0,1.1-1.4,5.9-4.2,14.2c-4.5,13.7-6.7,21.8-6.7,24.6c0,0.6,0.3,1.1,0.6,1.4s0.6,0.6,0.8,0.6
			c1.4,0,4.7-2.2,10.6-7l2.5,2.2c-5.9,5-10.1,8.1-12.8,9.5s-5,2-6.7,2c-1.4,0-2.8-0.6-3.6-1.4c-0.8-0.8-1.4-2-1.4-3.6
			c0-4.7,3.1-16.5,9.5-34.9c0.3-0.8,0.6-1.7,0.6-2.2c0-0.8-0.3-1.1-1.1-1.1c-0.8,0-2,0.3-2.8,0.8
			C1016.8,1329.2,1014.3,1331.2,1010.7,1334.5z M1035.8,1296.6c1.4,0,2.5,0.3,3.4,1.1c0.8,0.8,1.4,1.7,1.4,3.1c0,1.7-0.6,3.1-2,4.5
			c-1.4,1.4-2.8,2-4.5,2c-1.4,0-2.2-0.3-3.1-1.1c-0.8-0.8-1.4-2-1.4-3.1c0-1.7,0.6-3.1,2-4.5
			C1032.4,1297.1,1034.1,1296.6,1035.8,1296.6z"/>
		<linearGradient id="SVGID_23_" gradientUnits="userSpaceOnUse" x1="776.4741" y1="1234.338" x2="2657.6621" y2="2056.4202">
			<stop  offset="2.010050e-02" style="stop-color:#00FF49"/>
			<stop  offset="0.3593" style="stop-color:#E9B600"/>
			<stop  offset="0.5075" style="stop-color:#FF0000"/>
		</linearGradient>
		<path class="st22" d="M1083,1320.9l5-1.1c-3.1,8.9-5.9,17.9-8.7,26.8c-2,6.4-3.1,11.7-3.9,16.2c-0.3,2.2-0.6,4.7-0.6,8.1
			c0,5.6-0.8,10.1-2,13.4c-1.7,4.7-5,8.4-10.1,11.4c-5,2.8-10.6,4.2-17.3,4.2c-5.9,0-10.3-1.1-13.7-3.6c-3.4-2.5-5-5.3-5-8.4
			c0-3.1,1.4-5.9,3.9-8.7c2-2,6.1-4.5,12.3-7.3c3.1-1.4,6.1-3.1,8.9-4.5c-3.1,1.4-5.6,2.2-7.5,2.2c-1.7,0-3.1-0.6-4.2-2
			s-2-3.1-2-5.3c0-7,2.2-14,7-20.9s10.3-12.3,16.8-15.6c4.2-2.2,9.2-3.1,15.4-3.1c1.1,0,2.8,0,4.5,0L1083,1320.9z M1067.1,1360.5
			c-2.8,2.2-8.4,6.1-16.8,11.2c-7.3,4.5-11.7,7.5-13.4,9.5c-1.7,2-2.5,4.2-2.5,6.4s1.1,4.2,3.4,5.9c2.2,1.7,4.7,2.5,7.8,2.5
			c2.8,0,5.9-0.6,8.4-2c2.8-1.4,5-3.1,7.3-5.6c2-2.5,3.4-5.3,4.2-8.1c0.8-3.1,1.1-7,1.1-12.3
			C1066.5,1367.2,1066.8,1364.4,1067.1,1360.5z M1076,1329.2c-2-0.3-3.9-0.6-5.3-0.6c-4.2,0-7.5,0.8-10.3,2.8c-2.8,2-5.3,5-7.5,9.8
			c-2.8,6.4-4.2,11.7-4.2,16.2c0,1.7,0.6,3.4,1.7,4.5c1.1,1.1,2.5,2,3.9,2c1.7,0,3.9-0.8,6.4-2.2c2.5-1.4,4.5-3.4,6.1-5.6
			s3.4-6.1,5-11.4L1076,1329.2z"/>
		<linearGradient id="SVGID_24_" gradientUnits="userSpaceOnUse" x1="790.4067" y1="1202.4556" x2="2671.595" y2="2024.5378">
			<stop  offset="2.010050e-02" style="stop-color:#00FF49"/>
			<stop  offset="0.3593" style="stop-color:#E9B600"/>
			<stop  offset="0.5075" style="stop-color:#FF0000"/>
		</linearGradient>
		<path class="st23" d="M1094.4,1334.5l-2.2-2c5.6-4.7,9.8-7.8,13.1-9.2c3.4-1.7,6.1-2.2,8.4-2.2c0.8,0,1.7,0.3,2.2,0.6
			c0.6,0.3,0.8,0.8,0.8,1.1c0,0.3,0,0.8-0.3,2l-2.8,11.4c4.5-4.2,9.8-8.4,16.5-12c3.6-2,6.4-2.8,8.7-2.8c1.7,0,3.1,0.6,3.9,1.4
			s1.4,2.2,1.4,4.2c0,1.1-0.3,2.5-0.6,3.9c-0.6,2.5-2.5,7.8-5.3,16.2c-2.8,7.8-4.2,12.8-4.2,15.6c0,0.8,0,1.4,0.3,1.7
			s0.6,0.6,1.1,0.6c1.1,0,3.1-1.1,5.9-3.4c2-1.4,3.6-3.1,5.6-4.2l1.7,2c-3.9,3.9-8.1,7-12.3,9.5c-2.8,1.4-5,2.2-6.7,2.2
			c-1.7,0-2.8-0.6-3.9-1.7c-0.8-1.1-1.4-2.8-1.4-5c0-3.4,2.2-12,7-25.4c1.4-4.7,2.2-7.5,2.2-8.4c0-1.1-0.8-1.7-2.2-1.7
			c-1.7,0-3.9,0.8-6.7,2.5c-3.9,2.5-7.3,5.3-10.1,8.4c-1.7,2-3.1,5.3-4.2,9.8l-5.3,20.1h-9.5c1.7-5.9,3.4-11.2,4.7-16.5l5.6-21.8
			c0.3-0.8,0.3-1.4,0.3-2c0-1.1-0.6-1.7-1.4-1.7c-0.6,0-1.7,0.3-3.1,1.1C1099.2,1330.4,1096.7,1332.3,1094.4,1334.5z"/>
		<linearGradient id="SVGID_25_" gradientUnits="userSpaceOnUse" x1="810.7412" y1="1155.9238" x2="2691.9294" y2="1978.0061">
			<stop  offset="2.010050e-02" style="stop-color:#00FF49"/>
			<stop  offset="0.3593" style="stop-color:#E9B600"/>
			<stop  offset="0.5075" style="stop-color:#FF0000"/>
		</linearGradient>
		<path class="st24" d="M1254.4,1314.4h-3.4c0.3-2,0.6-3.6,0.6-4.7c0-1.4-0.8-2.5-2.2-3.1c-1.4-0.6-6.7-0.8-16.2-0.8h-9.5l-7,25.4
			h13.1c4.2,0,6.7-0.3,7.8-0.8c1.1-0.6,1.7-2,2-4.2h3.6c-1.4,4.7-2.5,9.8-3.6,15.4h-3.4c0.3-1.7,0.3-3.1,0.3-4.2
			c0-0.6-0.3-0.8-0.8-1.7c-0.3-0.3-0.8-0.6-1.7-0.6c-1.1-0.3-3.1-0.3-5.3-0.3h-13.1c-3.9,12.8-7.8,23.2-11.7,30.4
			c3.9-1.1,7.5-1.7,10.6-1.7c5,0,11.4,0.8,18.7,2.2c3.9,0.8,6.7,1.1,8.1,1.1c2,0,3.4-0.3,4.5-1.4c1.1-0.8,1.7-1.7,1.7-2.8
			c0-0.6-0.3-1.7-0.8-3.1c-0.3-0.8-0.6-2-0.6-2.8c0-0.8,0.3-1.7,1.1-2.2c0.8-0.6,1.7-1.1,2.8-1.1c1.4,0,2.5,0.6,3.4,1.4
			c0.8,0.8,1.4,2.2,1.4,3.6c0,3.4-1.7,6.1-4.7,8.7c-3.1,2.5-7.3,3.6-12.6,3.6c-2.8,0-6.1-0.3-10.3-0.6c-9.2-0.8-16.2-1.4-20.9-1.4
			c-6.4,0-13.7,0.6-22.1,1.4l1.1-3.1c5-1.1,8.1-2.2,8.9-2.8c0.8-0.6,1.7-1.4,2.2-2.5c2-3.6,4.7-10.9,8.1-21.8
			c3.4-10.9,6.7-22.3,10.1-34.6c-5,0-10.1,1.1-14.5,3.4c-4.5,2.2-8.1,5-10.6,8.4c-2.5,3.6-3.9,7.3-3.9,10.9c0,1.7,0.3,3.1,0.6,4.2
			s1.1,3.1,2.5,5c0.8,1.4,1.1,2.5,1.1,3.4c0,0.8-0.3,1.7-1.1,2.2c-0.8,0.6-1.7,0.8-2.8,0.8c-1.7,0-3.1-0.8-3.9-2.2
			c-1.4-2.2-2.2-5-2.2-8.9c0-8.1,3.4-15.4,10.1-21.5c6.7-6.4,16.8-9.5,29.6-9.5h22.1c7.5,0,13.1-0.6,16.8-1.4
			C1255.8,1307.2,1255,1311.9,1254.4,1314.4z"/>
		<linearGradient id="SVGID_26_" gradientUnits="userSpaceOnUse" x1="817.963" y1="1139.3982" x2="2699.1511" y2="1961.4803">
			<stop  offset="2.010050e-02" style="stop-color:#00FF49"/>
			<stop  offset="0.3593" style="stop-color:#E9B600"/>
			<stop  offset="0.5075" style="stop-color:#FF0000"/>
		</linearGradient>
		<path class="st25" d="M1269,1332.9l-2-2.2c4.5-3.4,8.4-5.9,11.7-7.5c2.2-1.1,3.9-1.7,5-1.7c1.7,0,2.8,0.8,3.9,2.2
			c1.4,2,2.8,6.7,4.2,13.4c5.3-7,10.1-11.7,14-14.5c4.2-2.5,7.5-3.9,10.1-3.9c1.4,0,2.5,0.3,3.4,1.1c0.8,0.8,1.4,1.7,1.4,2.8
			s-0.6,2.2-1.7,3.1c-0.8,0.6-3.1,0.8-7,1.1c-3.1,0.3-5.9,1.1-8.1,2.8c-3.6,2.8-7.3,6.7-10.9,12.3l4.2,17c1.7,7.5,3.6,13.1,5.6,16.8
			s4.2,6.4,7,8.4c1.7,1.1,3.4,1.7,5.3,1.7c2.8,0,4.7-1.4,5.9-4.5c0.8-2,2.2-2.8,3.9-2.8c0.8,0,1.7,0.3,2.2,0.8
			c0.6,0.6,0.8,1.4,0.8,2.5c0,2-1.1,3.6-3.6,5c-2.2,1.7-5.3,2.2-9.2,2.2c-4.2,0-8.1-1.1-11.7-3.4c-3.6-2.2-7-6.1-9.8-11.2
			c-2.8-5-5.3-13.1-7.5-24.3c-0.8,1.1-2.2,2.8-4.2,5c-5.3,6.7-9.5,11.2-12.6,13.1c-3.1,2-5.9,2.8-8.4,2.8c-2,0-3.4-0.6-4.7-1.4
			c-1.4-0.8-2-2-2-3.4c0-1.1,0.3-2,1.1-2.8c0.8-0.8,1.7-1.1,2.8-1.1s2.2,0.6,3.4,2c1.1,1.1,2,1.7,2.8,1.7c0.6,0,1.4-0.3,2-0.6
			c1.1-0.6,2.5-1.7,4.2-3.4c2.5-2.5,4.5-4.7,5.9-6.4l7.8-10.6l-2.5-10.6c-0.6-2.8-1.4-4.7-2-5.6c-0.8-0.8-1.4-1.1-2.2-1.1
			c-0.6,0-1.7,0.3-2.8,0.8C1272.9,1329.8,1270.6,1331.2,1269,1332.9z"/>
		<linearGradient id="SVGID_27_" gradientUnits="userSpaceOnUse" x1="819.9059" y1="1134.952" x2="2701.094" y2="1957.0342">
			<stop  offset="2.010050e-02" style="stop-color:#00FF49"/>
			<stop  offset="0.3593" style="stop-color:#E9B600"/>
			<stop  offset="0.5075" style="stop-color:#FF0000"/>
		</linearGradient>
		<path class="st26" d="M1318.9,1335.4l-2.5-2.2c3.9-4.2,7.8-7.3,11.7-9.2c3.9-2,7.3-3.1,10.1-3.1c1.1,0,2,0.3,2.5,0.8
			c0.6,0.6,0.8,1.1,0.8,2.2c0,1.1,0,2.2-0.3,3.4s-1.1,3.9-2.5,8.4c6.4-5.9,10.9-9.5,13.4-10.9c3.9-2.2,7.8-3.6,10.9-3.6
			c2.2,0,3.9,0.8,5.6,2.8c1.4,2,2.2,4.7,2.2,8.4c0,9.2-3.4,18.2-9.8,26.2c-6.4,8.4-13.7,12.6-21.5,12.6c-3.1,0-6.1-0.8-9.2-2.2
			l-5.6,19c-0.3,1.1-0.6,2-0.6,2.8c0,1.4,0.6,2.5,1.7,3.1c2,0.8,5.6,1.7,11.7,2.2l-0.8,2.8c-7-0.6-12.3-0.8-16.2-0.8
			c-4.2,0-9.2,0.3-15.6,0.8l0.8-2.8c3.4-0.3,5.6-1.1,7-2.5s2.8-3.6,3.6-7l11.7-43.6c2.2-8.1,3.4-12.6,3.4-13.4
			c0-1.1-0.6-1.4-1.7-1.4C1327.9,1328.1,1324.2,1330.4,1318.9,1335.4z M1331.8,1362.5c3.4,3.1,6.7,4.5,10.3,4.5
			c5,0,9.5-3.6,13.4-10.6c3.9-7.3,5.9-14.2,5.9-20.9c0-2.2-0.6-3.9-1.7-5c-1.1-1.1-2.5-1.7-4.5-1.7s-4.5,0.8-7,2.8
			c-3.9,2.8-7,5.6-9.2,8.4c-1.4,2-2.8,5.3-4.2,10.3L1331.8,1362.5z"/>
		<linearGradient id="SVGID_28_" gradientUnits="userSpaceOnUse" x1="836.1628" y1="1097.751" x2="2717.3511" y2="1919.8331">
			<stop  offset="2.010050e-02" style="stop-color:#00FF49"/>
			<stop  offset="0.3593" style="stop-color:#E9B600"/>
			<stop  offset="0.5075" style="stop-color:#FF0000"/>
		</linearGradient>
		<path class="st27" d="M1419.5,1320.3l4.2-0.8l-4.7,14.5c-2,5.9-3.6,12.6-5.3,19.8c-0.8,4.2-1.4,6.7-1.4,7.8c0,1.1,0.6,1.7,1.7,1.7
			c0.6,0,1.7-0.3,3.4-1.1c2.5-1.4,5.3-3.1,7.5-5.3l2,2.2c-4.7,3.9-8.1,6.4-9.2,7.3c-2.8,1.7-5.3,2.8-7.8,3.6
			c-1.7,0.6-3.1,0.8-4.7,0.8c-1.1,0-2-0.3-2.5-0.6c-0.6-0.6-0.8-1.1-0.8-2c0-0.6,0.3-1.4,0.6-2.2l2.5-7.8
			c-3.6,3.9-8.1,7.3-13.1,10.1c-3.1,1.7-5.9,2.5-8.7,2.5c-2.5,0-4.5-0.8-5.6-2.2c-1.7-2.2-2.8-4.7-2.8-8.4c0-4.2,1.1-8.7,3.6-13.4
			c2.5-5,5.6-9.5,9.8-13.4c4.2-4.2,8.4-7,12.8-8.9c3.4-1.4,7.8-2.2,13.4-2.2c1.4,0,2.8,0,4.2,0.3L1419.5,1320.3z M1411.4,1329
			c-2.2-0.6-4.2-0.6-5.9-0.6c-3.9,0-7.3,0.8-10.1,2.8c-2.8,2-5.6,5.3-8.1,10.3c-2.5,5-3.6,9.8-3.6,14.8c0,2.5,0.6,4.5,1.4,5.6
			c1.1,1.1,2.2,1.7,3.9,1.7c3.1,0,6.1-1.4,9.5-4.2c3.4-2.8,5.9-7,7.5-12.3L1411.4,1329z"/>
		<linearGradient id="SVGID_29_" gradientUnits="userSpaceOnUse" x1="844.7585" y1="1078.0814" x2="2725.9465" y2="1900.1637">
			<stop  offset="2.010050e-02" style="stop-color:#00FF49"/>
			<stop  offset="0.3593" style="stop-color:#E9B600"/>
			<stop  offset="0.5075" style="stop-color:#FF0000"/>
		</linearGradient>
		<path class="st28" d="M1442.6,1369.4h-9.5l4.5-15.4c2.2-7.5,4.2-14.8,5.6-21.5c0.3-1.7,0.6-2.8,0.6-3.1c0-0.8-0.6-1.4-1.4-1.4
			c-0.6,0-1.7,0.3-3.1,1.1c-1.4,0.8-3.6,2.8-7.3,5.9l-2-2c4.2-3.9,8.1-7,12.3-8.9c4.2-2,7.3-3.1,9.5-3.1c0.8,0,1.4,0.3,2,0.6
			c0.6,0.3,0.6,0.8,0.6,1.1c0,0.6-0.3,2-0.8,3.9l-2.8,10.3c4.2-6.1,9.2-11.4,14.5-15.6c2.5-2,4.7-3.1,6.4-3.1c1.4,0,2.2,0.3,3.1,1.1
			c0.8,0.8,1.4,1.7,1.4,2.5c0,1.1-0.3,2-1.1,2.5c-0.8,0.8-2.8,1.7-6.1,2.5c-3.1,0.8-5.9,2.2-7.8,3.4c-2,1.4-4.2,3.4-6.4,6.1
			c-2.2,2.8-3.9,5-5,7.3c-0.8,2-2.5,6.7-4.2,14.2L1442.6,1369.4z"/>
		<linearGradient id="SVGID_30_" gradientUnits="userSpaceOnUse" x1="851.9031" y1="1061.7322" x2="2733.0913" y2="1883.8145">
			<stop  offset="2.010050e-02" style="stop-color:#00FF49"/>
			<stop  offset="0.3593" style="stop-color:#E9B600"/>
			<stop  offset="0.5075" style="stop-color:#FF0000"/>
		</linearGradient>
		<path class="st29" d="M1487.9,1312.5l10.1-3.6l-4.5,15.9h13.1l-1.1,4.2h-13.4l-5.6,19.3c-1.7,5.9-2.8,9.8-2.8,12
			c0,1.1,0.3,1.7,0.8,2.2c0.6,0.6,1.1,0.6,2,0.6c1.4,0,3.4-0.8,6.1-2.2c3.6-2,7-3.9,10.3-6.4l2.5,2.5c-9.2,6.4-15.6,10.1-18.7,11.4
			c-3.1,1.4-5.6,2.2-7.5,2.2c-1.7,0-2.8-0.6-3.6-1.7s-1.4-2.8-1.4-5c0-2.8,0.8-7,2.5-12.6l6.4-22.9h-10.3l1.1-4.2h10.3
			L1487.9,1312.5z"/>
	</g>
</g>
</svg>
